<svg width="447" height="108" viewBox="0 0 447 108" fill="none" xmlns="http://www.w3.org/2000/svg">
<path d="M11.4079 4.89944V84H0.92277V4.89944H11.4079ZM44.5476 40.4838V49.0675H9.12619V40.4838H44.5476ZM49.926 4.89944V13.4832H9.12619V4.89944H49.926ZM52.5924 55.2609V54.0113C52.5924 49.7738 53.2081 45.8441 54.4395 42.2223C55.6709 38.5643 57.4456 35.3952 59.7636 32.715C62.0816 29.9987 64.8885 27.898 68.1843 26.4131C71.4802 24.8919 75.1744 24.1313 79.2671 24.1313C83.396 24.1313 87.1083 24.8919 90.4042 26.4131C93.7363 27.898 96.5613 29.9987 98.8793 32.715C101.233 35.3952 103.026 38.5643 104.258 42.2223C105.489 45.8441 106.105 49.7738 106.105 54.0113V55.2609C106.105 59.4984 105.489 63.4281 104.258 67.0499C103.026 70.6717 101.233 73.8408 98.8793 76.5572C96.5613 79.2373 93.7544 81.338 90.4585 82.8591C87.1989 84.3441 83.5046 85.0865 79.3758 85.0865C75.2469 85.0865 71.5345 84.3441 68.2387 82.8591C64.9428 81.338 62.1178 79.2373 59.7636 76.5572C57.4456 73.8408 55.6709 70.6717 54.4395 67.0499C53.2081 63.4281 52.5924 59.4984 52.5924 55.2609ZM62.6429 54.0113V55.2609C62.6429 58.1945 62.987 60.9652 63.6752 63.5729C64.3633 66.1444 65.3955 68.4262 66.7718 70.4182C68.1843 72.4102 69.9409 73.9857 72.0416 75.1446C74.1422 76.2674 76.587 76.8288 79.3758 76.8288C82.1283 76.8288 84.5368 76.2674 86.6013 75.1446C88.7019 73.9857 90.4404 72.4102 91.8167 70.4182C93.193 68.4262 94.2252 66.1444 94.9134 63.5729C95.6377 60.9652 95.9999 58.1945 95.9999 55.2609V54.0113C95.9999 51.1139 95.6377 48.3794 94.9134 45.8079C94.2252 43.2002 93.1749 40.9003 91.7624 38.9083C90.3861 36.8801 88.6476 35.2865 86.547 34.1275C84.4825 32.9685 82.0559 32.3891 79.2671 32.3891C76.5145 32.3891 74.0879 32.9685 71.9872 34.1275C69.9228 35.2865 68.1843 36.8801 66.7718 38.9083C65.3955 40.9003 64.3633 43.2002 63.6752 45.8079C62.987 48.3794 62.6429 51.1139 62.6429 54.0113ZM125.178 0.553253V84H115.073V0.553253H125.178ZM147.783 25.2179V84H137.678V25.2179H147.783ZM136.917 9.62591C136.917 7.99609 137.406 6.6198 138.384 5.49704C139.398 4.37427 140.883 3.81289 142.839 3.81289C144.758 3.81289 146.225 4.37427 147.239 5.49704C148.29 6.6198 148.815 7.99609 148.815 9.62591C148.815 11.1833 148.29 12.5234 147.239 13.6461C146.225 14.7327 144.758 15.276 142.839 15.276C140.883 15.276 139.398 14.7327 138.384 13.6461C137.406 12.5234 136.917 11.1833 136.917 9.62591ZM156.805 55.2609V54.0113C156.805 49.7738 157.421 45.8441 158.652 42.2223C159.884 38.5643 161.658 35.3952 163.976 32.715C166.294 29.9987 169.101 27.898 172.397 26.4131C175.693 24.8919 179.387 24.1313 183.48 24.1313C187.609 24.1313 191.321 24.8919 194.617 26.4131C197.949 27.898 200.774 29.9987 203.092 32.715C205.446 35.3952 207.239 38.5643 208.47 42.2223C209.702 45.8441 210.318 49.7738 210.318 54.0113V55.2609C210.318 59.4984 209.702 63.4281 208.47 67.0499C207.239 70.6717 205.446 73.8408 203.092 76.5572C200.774 79.2373 197.967 81.338 194.671 82.8591C191.412 84.3441 187.717 85.0865 183.589 85.0865C179.46 85.0865 175.747 84.3441 172.451 82.8591C169.156 81.338 166.331 79.2373 163.976 76.5572C161.658 73.8408 159.884 70.6717 158.652 67.0499C157.421 63.4281 156.805 59.4984 156.805 55.2609ZM166.856 54.0113V55.2609C166.856 58.1945 167.2 60.9652 167.888 63.5729C168.576 66.1444 169.608 68.4262 170.985 70.4182C172.397 72.4102 174.154 73.9857 176.254 75.1446C178.355 76.2674 180.8 76.8288 183.589 76.8288C186.341 76.8288 188.75 76.2674 190.814 75.1446C192.915 73.9857 194.653 72.4102 196.03 70.4182C197.406 68.4262 198.438 66.1444 199.126 63.5729C199.851 60.9652 200.213 58.1945 200.213 55.2609V54.0113C200.213 51.1139 199.851 48.3794 199.126 45.8079C198.438 43.2002 197.388 40.9003 195.975 38.9083C194.599 36.8801 192.86 35.2865 190.76 34.1275C188.695 32.9685 186.269 32.3891 183.48 32.3891C180.727 32.3891 178.301 32.9685 176.2 34.1275C174.136 35.2865 172.397 36.8801 170.985 38.9083C169.608 40.9003 168.576 43.2002 167.888 45.8079C167.2 48.3794 166.856 51.1139 166.856 54.0113ZM256.554 25.2179H265.681V82.7505C265.681 87.9297 264.631 92.3483 262.53 96.0063C260.43 99.6644 257.496 102.435 253.729 104.318C249.999 106.238 245.689 107.198 240.8 107.198C238.771 107.198 236.381 106.872 233.628 106.22C230.912 105.604 228.232 104.536 225.588 103.015C222.98 101.53 220.789 99.5195 219.014 96.9842L224.284 91.0082C226.747 93.9781 229.318 96.0426 231.999 97.2015C234.715 98.3605 237.395 98.94 240.039 98.94C243.226 98.94 245.979 98.3424 248.297 97.1472C250.615 95.952 252.408 94.1773 253.675 91.8231C254.979 89.5052 255.631 86.6439 255.631 83.2394V38.1478L256.554 25.2179ZM216.081 55.2609V54.12C216.081 49.6289 216.606 45.5544 217.656 41.8963C218.743 38.2021 220.282 35.033 222.274 32.3891C224.302 29.7451 226.747 27.7169 229.608 26.3044C232.469 24.8557 235.693 24.1313 239.278 24.1313C242.973 24.1313 246.196 24.7832 248.949 26.0871C251.737 27.3547 254.092 29.22 256.011 31.6828C257.967 34.1094 259.506 37.0431 260.629 40.4838C261.752 43.9246 262.53 47.818 262.965 52.1642V57.1623C262.567 61.4723 261.788 65.3476 260.629 68.7884C259.506 72.2291 257.967 75.1628 256.011 77.5894C254.092 80.016 251.737 81.8812 248.949 83.1851C246.16 84.4527 242.9 85.0865 239.17 85.0865C235.657 85.0865 232.469 84.3441 229.608 82.8591C226.783 81.3742 224.357 79.2916 222.328 76.6115C220.3 73.9313 218.743 70.7804 217.656 67.1585C216.606 63.5005 216.081 59.5346 216.081 55.2609ZM226.131 54.12V55.2609C226.131 58.1945 226.421 60.9471 227 63.5186C227.616 66.0901 228.54 68.3537 229.771 70.3095C231.039 72.2653 232.65 73.8046 234.606 74.9273C236.562 76.0139 238.898 76.5572 241.614 76.5572C244.947 76.5572 247.699 75.8509 249.872 74.4384C252.045 73.0259 253.766 71.1606 255.033 68.8427C256.337 66.5247 257.351 64.0076 258.076 61.2912V48.1983C257.677 46.2063 257.062 44.2867 256.229 42.4396C255.432 40.5563 254.381 38.8902 253.078 37.4415C251.81 35.9565 250.234 34.7795 248.351 33.9102C246.468 33.041 244.258 32.6064 241.723 32.6064C238.971 32.6064 236.598 33.1859 234.606 34.3448C232.65 35.4676 231.039 37.025 229.771 39.017C228.54 40.9728 227.616 43.2545 227 45.8622C226.421 48.4337 226.131 51.1863 226.131 54.12ZM286.548 34.4535V84H276.497V25.2179H286.276L286.548 34.4535ZM304.91 24.8919L304.856 34.2362C304.023 34.0551 303.226 33.9464 302.465 33.9102C301.741 33.8378 300.908 33.8016 299.966 33.8016C297.648 33.8016 295.602 34.1637 293.827 34.8881C292.053 35.6125 290.55 36.6266 289.318 37.9304C288.087 39.2343 287.109 40.7917 286.385 42.6026C285.696 44.3773 285.244 46.3331 285.026 48.4699L282.201 50.0998C282.201 46.5504 282.545 43.2183 283.234 40.1035C283.958 36.9888 285.063 34.2362 286.548 31.8458C288.032 29.4192 289.916 27.5358 292.198 26.1957C294.516 24.8195 297.268 24.1313 300.455 24.1313C301.18 24.1313 302.013 24.2219 302.954 24.4029C303.896 24.5478 304.548 24.7108 304.91 24.8919ZM342.237 73.9494V43.6891C342.237 41.3712 341.767 39.3611 340.825 37.6588C339.919 35.9203 338.543 34.5803 336.696 33.6386C334.849 32.6969 332.567 32.2261 329.851 32.2261C327.315 32.2261 325.088 32.6607 323.168 33.5299C321.285 34.3992 319.8 35.54 318.714 36.9526C317.663 38.3651 317.138 39.8862 317.138 41.516H307.088C307.088 39.4154 307.631 37.3328 308.717 35.2684C309.804 33.204 311.361 31.3387 313.39 29.6727C315.454 27.9704 317.917 26.6304 320.778 25.6525C323.676 24.6384 326.899 24.1313 330.448 24.1313C334.722 24.1313 338.489 24.8557 341.748 26.3044C345.044 27.7531 347.616 29.9443 349.463 32.878C351.346 35.7755 352.288 39.4154 352.288 43.7978V71.1788C352.288 73.1345 352.451 75.2171 352.777 77.4264C353.139 79.6357 353.664 81.5372 354.352 83.1308V84H343.867C343.36 82.841 342.962 81.3017 342.672 79.3822C342.382 77.4264 342.237 75.6155 342.237 73.9494ZM343.976 48.3613L344.084 55.4238H333.925C331.064 55.4238 328.511 55.6593 326.265 56.1301C324.02 56.5647 322.136 57.2347 320.615 58.1402C319.094 59.0457 317.935 60.1865 317.138 61.5628C316.341 62.9029 315.943 64.4784 315.943 66.2893C315.943 68.1364 316.359 69.8206 317.192 71.3417C318.025 72.8629 319.275 74.0762 320.941 74.9817C322.643 75.8509 324.726 76.2855 327.189 76.2855C330.267 76.2855 332.984 75.6336 335.338 74.3297C337.692 73.0259 339.557 71.4323 340.934 69.5489C342.346 67.6656 343.107 65.8366 343.215 64.0619L347.507 68.897C347.254 70.4182 346.565 72.1023 345.443 73.9494C344.32 75.7966 342.817 77.5713 340.934 79.2735C339.086 80.9396 336.877 82.334 334.306 83.4567C331.77 84.5433 328.909 85.0865 325.722 85.0865C321.738 85.0865 318.243 84.3079 315.237 82.7505C312.267 81.1931 309.949 79.1105 308.283 76.5028C306.653 73.8589 305.838 70.9071 305.838 67.6475C305.838 64.4965 306.454 61.7258 307.685 59.3354C308.917 56.9088 310.691 54.8987 313.009 53.3051C315.327 51.6753 318.116 50.4438 321.376 49.6108C324.635 48.7778 328.275 48.3613 332.295 48.3613H343.976ZM373.643 36.8982V84H363.538V25.2179H373.1L373.643 36.8982ZM371.578 52.3815L366.906 52.2185C366.943 48.1983 367.468 44.4859 368.482 41.0814C369.496 37.6407 370.999 34.6527 372.991 32.1174C374.983 29.5821 377.464 27.6264 380.434 26.2501C383.404 24.8376 386.844 24.1313 390.756 24.1313C393.509 24.1313 396.044 24.5297 398.362 25.3265C400.68 26.0871 402.69 27.3004 404.392 28.9664C406.094 30.6325 407.416 32.7693 408.358 35.3771C409.3 37.9848 409.771 41.1358 409.771 44.83V84H399.72V45.319C399.72 42.2404 399.195 39.7776 398.145 37.9304C397.13 36.0833 395.682 34.7432 393.798 33.9102C391.915 33.041 389.706 32.6064 387.17 32.6064C384.2 32.6064 381.72 33.1315 379.728 34.1819C377.736 35.2322 376.142 36.6809 374.947 38.528C373.752 40.3752 372.882 42.4939 372.339 44.8843C371.832 47.2385 371.578 49.7376 371.578 52.3815ZM409.662 46.8401L402.925 48.9046C402.962 45.6811 403.487 42.5845 404.501 39.6146C405.551 36.6447 407.054 34.0008 409.01 31.6828C411.002 29.3648 413.447 27.5358 416.344 26.1957C419.242 24.8195 422.556 24.1313 426.286 24.1313C429.437 24.1313 432.226 24.5478 434.652 25.3808C437.115 26.2139 439.18 27.4996 440.846 29.2381C442.548 30.9403 443.834 33.1315 444.703 35.8117C445.572 38.4918 446.007 41.679 446.007 45.3733V84H435.902V45.2646C435.902 41.9688 435.377 39.4154 434.326 37.6045C433.312 35.7573 431.864 34.4716 429.98 33.7472C428.133 32.9867 425.924 32.6064 423.352 32.6064C421.143 32.6064 419.187 32.9867 417.485 33.7472C415.783 34.5078 414.352 35.5581 413.193 36.8982C412.034 38.2021 411.147 39.7051 410.531 41.4074C409.952 43.1096 409.662 44.9206 409.662 46.8401Z" fill="black"/>
</svg>
