<svg width="1643" height="394" viewBox="0 0 1643 394" fill="none" xmlns="http://www.w3.org/2000/svg">
<path d="M39.5241 16.3007V308H0.857959V16.3007H39.5241ZM161.733 147.525V179.179H31.1097V147.525H161.733ZM181.567 16.3007V47.9548H31.1097V16.3007H181.567ZM191.4 202.019V197.411C191.4 181.784 193.671 167.292 198.212 153.936C202.753 140.447 209.297 128.76 217.845 118.876C226.393 108.859 236.744 101.113 248.899 95.6365C261.053 90.0269 274.676 87.2221 289.769 87.2221C304.995 87.2221 318.685 90.0269 330.839 95.6365C343.127 101.113 353.544 108.859 362.092 118.876C370.774 128.76 377.385 140.447 381.926 153.936C386.467 167.292 388.738 181.784 388.738 197.411V202.019C388.738 217.645 386.467 232.137 381.926 245.493C377.385 258.849 370.774 270.536 362.092 280.553C353.544 290.437 343.193 298.183 331.039 303.793C319.019 309.269 305.395 312.007 290.169 312.007C274.943 312.007 261.253 309.269 249.099 303.793C236.945 298.183 226.527 290.437 217.845 280.553C209.297 270.536 202.753 258.849 198.212 245.493C193.671 232.137 191.4 217.645 191.4 202.019ZM228.464 197.411V202.019C228.464 212.837 229.732 223.055 232.27 232.671C234.808 242.154 238.614 250.568 243.69 257.914C248.899 265.26 255.376 271.07 263.123 275.344C270.87 279.485 279.885 281.555 290.169 281.555C300.32 281.555 309.202 279.485 316.815 275.344C324.561 271.07 330.972 265.26 336.048 257.914C341.123 250.568 344.93 242.154 347.467 232.671C350.139 223.055 351.474 212.837 351.474 202.019V197.411C351.474 186.726 350.139 176.642 347.467 167.159C344.93 157.542 341.056 149.061 335.847 141.715C330.772 134.236 324.361 128.359 316.614 124.085C309.001 119.811 300.053 117.674 289.769 117.674C279.618 117.674 270.669 119.811 262.923 124.085C255.31 128.359 248.899 134.236 243.69 141.715C238.614 149.061 234.808 157.542 232.27 167.159C229.732 176.642 228.464 186.726 228.464 197.411ZM459.074 0.273224V308H421.811V0.273224H459.074ZM542.433 91.2289V308H505.169V91.2289H542.433ZM502.364 33.7305C502.364 27.7202 504.168 22.6449 507.774 18.5044C511.513 14.364 516.989 12.2938 524.202 12.2938C531.281 12.2938 536.69 14.364 540.43 18.5044C544.303 22.6449 546.24 27.7202 546.24 33.7305C546.24 39.4737 544.303 44.4155 540.43 48.5559C536.69 52.5627 531.281 54.5662 524.202 54.5662C516.989 54.5662 511.513 52.5627 507.774 48.5559C504.168 44.4155 502.364 39.4737 502.364 33.7305ZM575.706 202.019V197.411C575.706 181.784 577.977 167.292 582.518 153.936C587.059 140.447 593.603 128.76 602.151 118.876C610.699 108.859 621.05 101.113 633.204 95.6365C645.359 90.0269 658.982 87.2221 674.074 87.2221C689.3 87.2221 702.991 90.0269 715.145 95.6365C727.432 101.113 737.85 108.859 746.398 118.876C755.08 128.76 761.691 140.447 766.232 153.936C770.773 167.292 773.044 181.784 773.044 197.411V202.019C773.044 217.645 770.773 232.137 766.232 245.493C761.691 258.849 755.08 270.536 746.398 280.553C737.85 290.437 727.499 298.183 715.345 303.793C703.324 309.269 689.701 312.007 674.475 312.007C659.249 312.007 645.559 309.269 633.405 303.793C621.251 298.183 610.833 290.437 602.151 280.553C593.603 270.536 587.059 258.849 582.518 245.493C577.977 232.137 575.706 217.645 575.706 202.019ZM612.769 197.411V202.019C612.769 212.837 614.038 223.055 616.576 232.671C619.114 242.154 622.92 250.568 627.995 257.914C633.204 265.26 639.682 271.07 647.429 275.344C655.175 279.485 664.191 281.555 674.475 281.555C684.626 281.555 693.508 279.485 701.121 275.344C708.867 271.07 715.278 265.26 720.354 257.914C725.429 250.568 729.235 242.154 731.773 232.671C734.444 223.055 735.78 212.837 735.78 202.019V197.411C735.78 186.726 734.444 176.642 731.773 167.159C729.235 157.542 725.362 149.061 720.153 141.715C715.078 134.236 708.667 128.359 700.92 124.085C693.307 119.811 684.359 117.674 674.074 117.674C663.924 117.674 654.975 119.811 647.228 124.085C639.615 128.359 633.204 134.236 627.995 141.715C622.92 149.061 619.114 157.542 616.576 167.159C614.038 176.642 612.769 186.726 612.769 197.411ZM943.552 91.2289H977.209V303.392C977.209 322.491 973.336 338.786 965.589 352.276C957.843 365.766 947.024 375.983 933.134 382.928C919.377 390.007 903.483 393.546 885.452 393.546C877.973 393.546 869.158 392.344 859.007 389.94C848.99 387.67 839.106 383.73 829.356 378.12C819.74 372.644 811.659 365.231 805.115 355.882L824.548 333.844C833.63 344.796 843.113 352.409 852.997 356.683C863.014 360.957 872.897 363.094 882.647 363.094C894.401 363.094 904.552 360.891 913.1 356.483C921.648 352.075 928.259 345.531 932.934 336.849C937.742 328.301 940.146 317.75 940.146 305.195V138.911L943.552 91.2289ZM794.296 202.019V197.811C794.296 181.25 796.233 166.224 800.106 152.734C804.113 139.111 809.789 127.424 817.135 117.674C824.615 107.924 833.63 100.445 844.182 95.2358C854.733 89.8933 866.62 87.2221 879.843 87.2221C893.466 87.2221 905.353 89.6262 915.504 94.4344C925.788 99.1091 934.469 105.988 941.548 115.07C948.761 124.018 954.437 134.837 958.577 147.525C962.718 160.214 965.589 174.572 967.192 190.599V209.031C965.723 224.924 962.851 239.216 958.577 251.904C954.437 264.592 948.761 275.411 941.548 284.36C934.469 293.308 925.788 300.187 915.504 304.995C905.219 309.67 893.199 312.007 879.442 312.007C866.486 312.007 854.733 309.269 844.182 303.793C833.764 298.317 824.815 290.637 817.336 280.753C809.856 270.87 804.113 259.25 800.106 245.894C796.233 232.404 794.296 217.779 794.296 202.019ZM831.36 197.811V202.019C831.36 212.837 832.428 222.988 834.565 232.471C836.836 241.954 840.241 250.301 844.783 257.514C849.457 264.726 855.401 270.402 862.613 274.543C869.825 278.55 878.44 280.553 888.457 280.553C900.745 280.553 910.896 277.949 918.909 272.74C926.923 267.531 933.267 260.652 937.942 252.104C942.75 243.556 946.49 234.274 949.161 224.257V175.974C947.692 168.628 945.422 161.549 942.35 154.738C939.411 147.792 935.538 141.649 930.73 136.306C926.055 130.83 920.245 126.489 913.3 123.284C906.355 120.078 898.207 118.476 888.858 118.476C878.707 118.476 869.959 120.613 862.613 124.887C855.401 129.027 849.457 134.77 844.783 142.116C840.241 149.328 836.836 157.743 834.565 167.359C832.428 176.842 831.36 186.993 831.36 197.811ZM1054.16 125.287V308H1017.09V91.2289H1053.16L1054.16 125.287ZM1121.87 90.0269L1121.67 124.486C1118.6 123.818 1115.66 123.417 1112.86 123.284C1110.19 123.017 1107.11 122.883 1103.64 122.883C1095.09 122.883 1087.55 124.219 1081 126.89C1074.46 129.561 1068.92 133.301 1064.37 138.109C1059.83 142.917 1056.23 148.661 1053.56 155.339C1051.02 161.883 1049.35 169.096 1048.55 176.976L1038.13 182.986C1038.13 169.897 1039.4 157.609 1041.94 146.123C1044.61 134.637 1048.68 124.486 1054.16 115.671C1059.63 106.722 1066.58 99.7769 1074.99 94.8351C1083.54 89.7597 1093.69 87.2221 1105.44 87.2221C1108.12 87.2221 1111.19 87.556 1114.66 88.2238C1118.13 88.758 1120.54 89.3591 1121.87 90.0269ZM1259.52 270.937V159.346C1259.52 150.798 1257.79 143.385 1254.32 137.107C1250.98 130.696 1245.9 125.755 1239.09 122.282C1232.28 118.809 1223.86 117.073 1213.85 117.073C1204.5 117.073 1196.28 118.676 1189.2 121.881C1182.26 125.087 1176.78 129.294 1172.78 134.503C1168.9 139.712 1166.97 145.322 1166.97 151.332H1129.9C1129.9 143.585 1131.91 135.905 1135.91 128.292C1139.92 120.679 1145.66 113.801 1153.14 107.657C1160.76 101.38 1169.84 96.4378 1180.39 92.8317C1191.07 89.0919 1202.96 87.2221 1216.05 87.2221C1231.81 87.2221 1245.7 89.8933 1257.72 95.2358C1269.88 100.578 1279.36 108.659 1286.17 119.477C1293.12 130.162 1296.59 143.585 1296.59 159.746V260.719C1296.59 267.931 1297.19 275.611 1298.39 283.759C1299.73 291.906 1301.66 298.918 1304.2 304.795V308H1265.53C1263.66 303.726 1262.2 298.05 1261.13 290.971C1260.06 283.759 1259.52 277.08 1259.52 270.937ZM1265.94 176.575L1266.34 202.62H1228.87C1218.32 202.62 1208.9 203.488 1200.62 205.224C1192.34 206.827 1185.4 209.298 1179.79 212.637C1174.18 215.976 1169.9 220.183 1166.97 225.258C1164.03 230.2 1162.56 236.01 1162.56 242.688C1162.56 249.5 1164.09 255.71 1167.17 261.32C1170.24 266.93 1174.85 271.404 1180.99 274.743C1187.27 277.949 1194.95 279.551 1204.03 279.551C1215.38 279.551 1225.4 277.147 1234.08 272.339C1242.76 267.531 1249.64 261.654 1254.72 254.709C1259.93 247.764 1262.73 241.019 1263.13 234.474L1278.96 252.305C1278.02 257.914 1275.49 264.125 1271.34 270.937C1267.2 277.748 1261.66 284.293 1254.72 290.57C1247.9 296.714 1239.76 301.856 1230.27 305.997C1220.93 310.003 1210.37 312.007 1198.62 312.007C1183.93 312.007 1171.04 309.135 1159.95 303.392C1149 297.649 1140.45 289.969 1134.31 280.353C1128.3 270.603 1125.29 259.717 1125.29 247.697C1125.29 236.077 1127.57 225.859 1132.11 217.044C1136.65 208.096 1143.19 200.683 1151.74 194.806C1160.29 188.796 1170.57 184.255 1182.59 181.183C1194.61 178.111 1208.04 176.575 1222.86 176.575H1265.94ZM1375.34 134.303V308H1338.08V91.2289H1373.34L1375.34 134.303ZM1367.73 191.4L1350.5 190.799C1350.63 175.974 1352.57 162.284 1356.31 149.729C1360.05 137.041 1365.59 126.022 1372.93 116.672C1380.28 107.323 1389.43 100.111 1400.38 95.0354C1411.33 89.8265 1424.02 87.2221 1438.45 87.2221C1448.6 87.2221 1457.95 88.6912 1466.49 91.6296C1475.04 94.4344 1482.46 98.9087 1488.73 105.053C1495.01 111.196 1499.89 119.077 1503.36 128.693C1506.83 138.31 1508.57 149.929 1508.57 163.553V308H1471.5V165.356C1471.5 154.003 1469.57 144.921 1465.69 138.109C1461.95 131.298 1456.61 126.356 1449.67 123.284C1442.72 120.078 1434.57 118.476 1425.22 118.476C1414.27 118.476 1405.12 120.412 1397.78 124.286C1390.43 128.159 1384.55 133.501 1380.15 140.313C1375.74 147.125 1372.53 154.938 1370.53 163.753C1368.66 172.435 1367.73 181.65 1367.73 191.4ZM1508.17 170.965L1483.32 178.578C1483.46 166.691 1485.39 155.272 1489.13 144.32C1493.01 133.368 1498.55 123.618 1505.76 115.07C1513.11 106.522 1522.12 99.7769 1532.81 94.8351C1543.49 89.7597 1555.71 87.2221 1569.47 87.2221C1581.09 87.2221 1591.38 88.758 1600.32 91.83C1609.41 94.9019 1617.02 99.6433 1623.16 106.054C1629.44 112.332 1634.18 120.412 1637.39 130.296C1640.59 140.179 1642.2 151.933 1642.2 165.556V308H1604.93V165.155C1604.93 153.001 1603 143.585 1599.12 136.907C1595.38 130.095 1590.04 125.354 1583.09 122.683C1576.28 119.878 1568.14 118.476 1558.65 118.476C1550.51 118.476 1543.29 119.878 1537.02 122.683C1530.74 125.488 1525.46 129.361 1521.19 134.303C1516.91 139.111 1513.64 144.654 1511.37 150.931C1509.23 157.209 1508.17 163.887 1508.17 170.965Z" fill="black"/>
</svg>
