<svg width="618" height="184" viewBox="0 0 618 184" fill="none" xmlns="http://www.w3.org/2000/svg">
<path d="M96.4082 23.8994V103H85.923V23.8994H96.4082ZM129.548 59.4838V68.0675H94.1264V59.4838H129.548ZM134.926 23.8994V32.4832H94.1264V23.8994H134.926ZM137.593 74.2609V73.0113C137.593 68.7738 138.208 64.8441 139.44 61.2223C140.671 57.5643 142.446 54.3952 144.764 51.715C147.082 48.9987 149.889 46.898 153.185 45.4131C156.48 43.8919 160.175 43.1313 164.267 43.1313C168.396 43.1313 172.109 43.8919 175.404 45.4131C178.737 46.898 181.562 48.9987 183.88 51.715C186.234 54.3952 188.026 57.5643 189.258 61.2223C190.489 64.8441 191.105 68.7738 191.105 73.0113V74.2609C191.105 78.4984 190.489 82.4281 189.258 86.0499C188.026 89.6717 186.234 92.8408 183.88 95.5572C181.562 98.2373 178.755 100.338 175.459 101.859C172.199 103.344 168.505 104.087 164.376 104.087C160.247 104.087 156.535 103.344 153.239 101.859C149.943 100.338 147.118 98.2373 144.764 95.5572C142.446 92.8408 140.671 89.6717 139.44 86.0499C138.208 82.4281 137.593 78.4984 137.593 74.2609ZM147.643 73.0113V74.2609C147.643 77.1945 147.987 79.9652 148.675 82.5729C149.364 85.1444 150.396 87.4262 151.772 89.4182C153.185 91.4102 154.941 92.9857 157.042 94.1446C159.142 95.2674 161.587 95.8288 164.376 95.8288C167.129 95.8288 169.537 95.2674 171.602 94.1446C173.702 92.9857 175.441 91.4102 176.817 89.4182C178.193 87.4262 179.225 85.1444 179.914 82.5729C180.638 79.9652 181 77.1945 181 74.2609V73.0113C181 70.1139 180.638 67.3794 179.914 64.8079C179.225 62.2002 178.175 59.9003 176.763 57.9083C175.386 55.8801 173.648 54.2865 171.547 53.1275C169.483 51.9685 167.056 51.3891 164.267 51.3891C161.515 51.3891 159.088 51.9685 156.987 53.1275C154.923 54.2865 153.185 55.8801 151.772 57.9083C150.396 59.9003 149.364 62.2002 148.675 64.8079C147.987 67.3794 147.643 70.1139 147.643 73.0113ZM210.178 19.5533V103H200.073V19.5533H210.178ZM232.783 44.2179V103H222.678V44.2179H232.783ZM221.917 28.6259C221.917 26.9961 222.406 25.6198 223.384 24.497C224.398 23.3743 225.883 22.8129 227.839 22.8129C229.759 22.8129 231.225 23.3743 232.24 24.497C233.29 25.6198 233.815 26.9961 233.815 28.6259C233.815 30.1833 233.29 31.5234 232.24 32.6461C231.225 33.7327 229.759 34.276 227.839 34.276C225.883 34.276 224.398 33.7327 223.384 32.6461C222.406 31.5234 221.917 30.1833 221.917 28.6259ZM241.805 74.2609V73.0113C241.805 68.7738 242.421 64.8441 243.653 61.2223C244.884 57.5643 246.659 54.3952 248.977 51.715C251.295 48.9987 254.102 46.898 257.397 45.4131C260.693 43.8919 264.388 43.1313 268.48 43.1313C272.609 43.1313 276.321 43.8919 279.617 45.4131C282.949 46.898 285.774 48.9987 288.092 51.715C290.447 54.3952 292.239 57.5643 293.471 61.2223C294.702 64.8441 295.318 68.7738 295.318 73.0113V74.2609C295.318 78.4984 294.702 82.4281 293.471 86.0499C292.239 89.6717 290.447 92.8408 288.092 95.5572C285.774 98.2373 282.967 100.338 279.672 101.859C276.412 103.344 272.718 104.087 268.589 104.087C264.46 104.087 260.748 103.344 257.452 101.859C254.156 100.338 251.331 98.2373 248.977 95.5572C246.659 92.8408 244.884 89.6717 243.653 86.0499C242.421 82.4281 241.805 78.4984 241.805 74.2609ZM251.856 73.0113V74.2609C251.856 77.1945 252.2 79.9652 252.888 82.5729C253.576 85.1444 254.609 87.4262 255.985 89.4182C257.397 91.4102 259.154 92.9857 261.255 94.1446C263.355 95.2674 265.8 95.8288 268.589 95.8288C271.341 95.8288 273.75 95.2674 275.814 94.1446C277.915 92.9857 279.653 91.4102 281.03 89.4182C282.406 87.4262 283.438 85.1444 284.126 82.5729C284.851 79.9652 285.213 77.1945 285.213 74.2609V73.0113C285.213 70.1139 284.851 67.3794 284.126 64.8079C283.438 62.2002 282.388 59.9003 280.975 57.9083C279.599 55.8801 277.861 54.2865 275.76 53.1275C273.696 51.9685 271.269 51.3891 268.48 51.3891C265.728 51.3891 263.301 51.9685 261.2 53.1275C259.136 54.2865 257.397 55.8801 255.985 57.9083C254.609 59.9003 253.576 62.2002 252.888 64.8079C252.2 67.3794 251.856 70.1139 251.856 73.0113ZM341.555 44.2179H350.682V101.75C350.682 106.93 349.631 111.348 347.531 115.006C345.43 118.664 342.496 121.435 338.73 123.318C334.999 125.238 330.689 126.198 325.8 126.198C323.772 126.198 321.381 125.872 318.629 125.22C315.912 124.604 313.232 123.536 310.588 122.015C307.98 120.53 305.789 118.52 304.015 115.984L309.284 110.008C311.747 112.978 314.319 115.043 316.999 116.202C319.715 117.361 322.395 117.94 325.039 117.94C328.226 117.94 330.979 117.342 333.297 116.147C335.615 114.952 337.408 113.177 338.675 110.823C339.979 108.505 340.631 105.644 340.631 102.239V57.1478L341.555 44.2179ZM301.081 74.2609V73.12C301.081 68.6289 301.606 64.5544 302.656 60.8963C303.743 57.2021 305.282 54.033 307.274 51.3891C309.302 48.7451 311.747 46.7169 314.608 45.3044C317.47 43.8557 320.693 43.1313 324.279 43.1313C327.973 43.1313 331.196 43.7832 333.949 45.0871C336.738 46.3547 339.092 48.22 341.011 50.6828C342.967 53.1094 344.507 56.0431 345.629 59.4838C346.752 62.9246 347.531 66.818 347.965 71.1642V76.1623C347.567 80.4723 346.788 84.3476 345.629 87.7884C344.507 91.2291 342.967 94.1628 341.011 96.5894C339.092 99.016 336.738 100.881 333.949 102.185C331.16 103.453 327.9 104.087 324.17 104.087C320.657 104.087 317.47 103.344 314.608 101.859C311.783 100.374 309.357 98.2916 307.329 95.6115C305.3 92.9313 303.743 89.7804 302.656 86.1585C301.606 82.5005 301.081 78.5346 301.081 74.2609ZM311.131 73.12V74.2609C311.131 77.1945 311.421 79.9471 312.001 82.5186C312.616 85.0901 313.54 87.3537 314.771 89.3095C316.039 91.2653 317.651 92.8046 319.607 93.9273C321.562 95.0139 323.898 95.5572 326.615 95.5572C329.947 95.5572 332.699 94.8509 334.872 93.4384C337.046 92.0259 338.766 90.1606 340.034 87.8427C341.337 85.5247 342.352 83.0076 343.076 80.2912V67.1983C342.678 65.2063 342.062 63.2867 341.229 61.4396C340.432 59.5563 339.382 57.8902 338.078 56.4415C336.81 54.9565 335.235 53.7795 333.351 52.9102C331.468 52.041 329.259 51.6064 326.723 51.6064C323.971 51.6064 321.599 52.1859 319.607 53.3448C317.651 54.4676 316.039 56.025 314.771 58.017C313.54 59.9728 312.616 62.2545 312.001 64.8622C311.421 67.4337 311.131 70.1863 311.131 73.12ZM371.548 53.4535V103H361.497V44.2179H371.276L371.548 53.4535ZM389.91 43.8919L389.856 53.2362C389.023 53.0551 388.226 52.9464 387.466 52.9102C386.741 52.8378 385.908 52.8016 384.967 52.8016C382.649 52.8016 380.602 53.1637 378.828 53.8881C377.053 54.6125 375.55 55.6266 374.318 56.9304C373.087 58.2343 372.109 59.7917 371.385 61.6026C370.697 63.3773 370.244 65.3331 370.027 67.4699L367.202 69.0998C367.202 65.5504 367.546 62.2183 368.234 59.1035C368.958 55.9888 370.063 53.2362 371.548 50.8458C373.033 48.4192 374.916 46.5358 377.198 45.1957C379.516 43.8195 382.268 43.1313 385.456 43.1313C386.18 43.1313 387.013 43.2219 387.955 43.4029C388.896 43.5478 389.548 43.7108 389.91 43.8919ZM427.238 92.9494V62.6891C427.238 60.3712 426.767 58.3611 425.825 56.6588C424.92 54.9203 423.543 53.5803 421.696 52.6386C419.849 51.6969 417.567 51.2261 414.851 51.2261C412.316 51.2261 410.088 51.6607 408.169 52.5299C406.285 53.3992 404.8 54.54 403.714 55.9526C402.664 57.3651 402.138 58.8862 402.138 60.516H392.088C392.088 58.4154 392.631 56.3328 393.718 54.2684C394.804 52.204 396.362 50.3387 398.39 48.6727C400.454 46.9704 402.917 45.6304 405.778 44.6525C408.676 43.6384 411.899 43.1313 415.449 43.1313C419.722 43.1313 423.489 43.8557 426.749 45.3044C430.045 46.7531 432.616 48.9443 434.463 51.878C436.346 54.7755 437.288 58.4154 437.288 62.7978V90.1788C437.288 92.1345 437.451 94.2171 437.777 96.4264C438.139 98.6357 438.664 100.537 439.353 102.131V103H428.867C428.36 101.841 427.962 100.302 427.672 98.3822C427.382 96.4264 427.238 94.6155 427.238 92.9494ZM428.976 67.3613L429.085 74.4238H418.926C416.064 74.4238 413.511 74.6593 411.265 75.1301C409.02 75.5647 407.136 76.2347 405.615 77.1402C404.094 78.0457 402.935 79.1865 402.138 80.5628C401.342 81.9029 400.943 83.4784 400.943 85.2893C400.943 87.1364 401.36 88.8206 402.193 90.3417C403.026 91.8629 404.275 93.0762 405.941 93.9817C407.644 94.8509 409.726 95.2855 412.189 95.2855C415.267 95.2855 417.984 94.6336 420.338 93.3297C422.692 92.0259 424.557 90.4323 425.934 88.5489C427.346 86.6656 428.107 84.8366 428.215 83.0619L432.507 87.897C432.254 89.4182 431.566 91.1023 430.443 92.9494C429.32 94.7966 427.817 96.5713 425.934 98.2735C424.087 99.9396 421.877 101.334 419.306 102.457C416.771 103.543 413.909 104.087 410.722 104.087C406.738 104.087 403.243 103.308 400.237 101.75C397.267 100.193 394.949 98.1105 393.283 95.5028C391.653 92.8589 390.838 89.9071 390.838 86.6475C390.838 83.4965 391.454 80.7258 392.685 78.3354C393.917 75.9088 395.692 73.8987 398.01 72.3051C400.327 70.6753 403.116 69.4438 406.376 68.6108C409.636 67.7778 413.275 67.3613 417.296 67.3613H428.976ZM458.643 55.8982V103H448.538V44.2179H458.1L458.643 55.8982ZM456.579 71.3815L451.907 71.2185C451.943 67.1983 452.468 63.4859 453.482 60.0814C454.496 56.6407 455.999 53.6527 457.991 51.1174C459.983 48.5821 462.464 46.6264 465.434 45.2501C468.404 43.8376 471.845 43.1313 475.756 43.1313C478.509 43.1313 481.044 43.5297 483.362 44.3265C485.68 45.0871 487.69 46.3004 489.392 47.9664C491.095 49.6325 492.417 51.7693 493.358 54.3771C494.3 56.9848 494.771 60.1358 494.771 63.83V103H484.72V64.319C484.72 61.2404 484.195 58.7776 483.145 56.9304C482.131 55.0833 480.682 53.7432 478.799 52.9102C476.915 52.041 474.706 51.6064 472.171 51.6064C469.201 51.6064 466.72 52.1315 464.728 53.1819C462.736 54.2322 461.142 55.6809 459.947 57.528C458.752 59.3752 457.883 61.4939 457.339 63.8843C456.832 66.2385 456.579 68.7376 456.579 71.3815ZM494.662 65.8401L487.926 67.9046C487.962 64.6811 488.487 61.5845 489.501 58.6146C490.551 55.6447 492.054 53.0008 494.01 50.6828C496.002 48.3648 498.447 46.5358 501.344 45.1957C504.242 43.8195 507.556 43.1313 511.286 43.1313C514.437 43.1313 517.226 43.5478 519.653 44.3808C522.116 45.2139 524.18 46.4996 525.846 48.2381C527.548 49.9403 528.834 52.1315 529.703 54.8117C530.572 57.4918 531.007 60.679 531.007 64.3733V103H520.902V64.2646C520.902 60.9688 520.377 58.4154 519.327 56.6045C518.313 54.7573 516.864 53.4716 514.981 52.7472C513.133 51.9867 510.924 51.6064 508.353 51.6064C506.143 51.6064 504.188 51.9867 502.485 52.7472C500.783 53.5078 499.352 54.5581 498.193 55.8982C497.034 57.2021 496.147 58.7051 495.531 60.4074C494.952 62.1096 494.662 63.9206 494.662 65.8401Z" fill="black"/>
<path d="M21.6899 157.736C17.2232 158.683 13.3243 158.91 6.58646 158.91V149.068H18.5102V146.57H3.52035V161.446H6.17007C13.3243 161.446 17.3746 161.219 22.0306 160.273L21.6899 157.736ZM17.5639 175.376C12.5294 175.376 9.42544 173.862 9.42544 171.364C9.42544 168.865 12.5294 167.351 17.5639 167.351C22.5605 167.351 25.6645 168.865 25.6645 171.364C25.6645 173.862 22.5605 175.376 17.5639 175.376ZM17.5639 164.853C10.6746 164.853 6.35934 167.275 6.35934 171.364C6.35934 175.452 10.6746 177.874 17.5639 177.874C24.4153 177.874 28.7306 175.452 28.7306 171.364C28.7306 167.275 24.4153 164.853 17.5639 164.853ZM28.3899 152.778V143.958H25.2481V164.172H28.3899V155.352H33.3865V152.778H28.3899ZM67.5271 143.958H64.4232V168.865H67.5271V143.958ZM60.1079 160.878C55.0734 159.023 51.6288 154.405 51.6288 149.295V145.851H48.5248V149.295C48.5248 154.595 45.118 159.516 40.0079 161.484L41.6355 164.02C45.6101 162.355 48.6762 159.061 50.1147 154.935C51.6288 158.796 54.6192 161.862 58.4802 163.339L60.1079 160.878ZM48.7898 174.619V166.556H45.6858V177.155H68.5492V174.619H48.7898ZM88.3434 146.456C83.0818 146.456 79.2587 149.674 79.2587 154.443C79.2587 159.175 83.0818 162.43 88.3434 162.43C93.6429 162.43 97.4282 159.175 97.4282 154.443C97.4282 149.674 93.6429 146.456 88.3434 146.456ZM88.3434 149.106C91.8638 149.106 94.3999 151.264 94.3999 154.443C94.3999 157.585 91.8638 159.781 88.3434 159.781C84.8609 159.781 82.2869 157.585 82.2869 154.443C82.2869 151.264 84.8609 149.106 88.3434 149.106ZM101.895 143.958V177.988H104.999V143.958H101.895ZM77.9338 170.531C84.066 170.531 92.2802 170.455 99.9265 169.055L99.6615 166.746C92.2423 167.881 83.7253 167.919 77.5553 167.919L77.9338 170.531ZM138.568 148.122C141.861 148.122 144.208 149.901 144.208 152.551C144.208 155.2 141.861 156.979 138.568 156.979C135.237 156.979 132.89 155.2 132.89 152.551C132.89 149.901 135.237 148.122 138.568 148.122ZM138.568 159.516C143.603 159.516 147.199 156.677 147.199 152.551C147.199 148.387 143.603 145.548 138.568 145.548C133.496 145.548 129.9 148.387 129.9 152.551C129.9 156.677 133.496 159.516 138.568 159.516ZM149.735 161.181C142.278 162.317 133.685 162.392 127.364 162.392L127.78 165.004C130.581 165.004 133.799 164.966 137.168 164.815V176.852H140.271V164.626C143.489 164.436 146.782 164.058 150 163.49L149.735 161.181ZM152.195 143.996V177.95H155.299V143.996H152.195ZM169.378 150.62H178.954V148.084H166.312V169.547H168.545C173.617 169.547 177.062 169.395 181.112 168.525L180.847 165.951C177.138 166.746 173.92 166.935 169.378 166.973V150.62ZM190.954 143.958V157.585H186.147V144.715H183.232V176.209H186.147V160.121H190.954V177.912H193.944V143.958H190.954ZM222.899 148.122H214.42V143.958H211.316V148.122H202.875V150.62H222.899V148.122ZM207.72 158.796C207.72 156.449 209.802 154.935 212.868 154.935C215.934 154.935 218.054 156.449 218.054 158.796C218.054 161.181 215.934 162.695 212.868 162.695C209.802 162.695 207.72 161.181 207.72 158.796ZM221.006 158.796C221.006 155.011 217.675 152.513 212.868 152.513C208.061 152.513 204.767 155.011 204.767 158.796C204.767 162.62 208.061 165.118 212.868 165.118C217.675 165.118 221.006 162.62 221.006 158.796ZM211.089 167.427H207.985V177.155H230.621V174.619H211.089V167.427ZM229.107 155.162V143.958H226.003V169.433H229.107V157.774H234.104V155.162H229.107ZM266.954 157.699H257.339V152.626H266.954V157.699ZM269.982 145.358H266.954V150.242H257.339V145.358H254.273V160.197H269.982V145.358ZM260.784 171.364H279.218V163.112H257.642V165.572H276.152V169.055H257.755V177.534H280.467V175.073H260.784V171.364ZM279.218 151.264V143.996H276.114V161.522H279.218V153.838H284.253V151.264H279.218ZM301.965 150.014H309.498V147.44H291.139V150.014H298.899V154.33C298.899 160.083 294.811 166.518 289.965 168.941L291.782 171.401C295.606 169.433 298.899 165.118 300.451 160.159C302.003 164.701 305.182 168.676 308.968 170.569L310.747 168.07C305.826 165.761 301.965 159.743 301.965 154.33V150.014ZM322.254 157.661H316.652V143.996H313.548V177.912H316.652V160.273H322.254V157.661ZM331.033 160.689C335.008 159.705 338.036 157.434 339.474 154.443C340.951 157.207 343.903 159.251 347.802 160.197L349.051 157.774C344.244 156.677 340.951 153.762 340.951 150.355V150.279H348.446V147.819H340.951V144.034H337.847V147.819H330.39V150.279H337.885V150.355C337.885 153.989 334.591 157.093 329.708 158.229L331.033 160.689ZM350.528 161.938C343.108 162.998 334.591 163.036 328.119 163.036L328.535 165.648C331.374 165.648 334.591 165.61 337.923 165.496V176.928H341.026V165.307C344.244 165.118 347.575 164.777 350.755 164.247L350.528 161.938ZM352.95 143.996V177.95H356.054V143.996H352.95ZM389.627 149.901H369.792V157.169H393.299V154.935H372.858V152.021H392.693V144.942H369.716V147.138H389.627V149.901ZM372.669 172.083H392.807V164.853H369.527V167.086H389.741V169.925H369.603V177.458H393.867V175.225H372.669V172.083ZM365.855 159.743V162.09H396.63V159.743H365.855ZM417.973 147.63V150.128H430.729C430.086 158.191 425.543 164.701 416.421 169.055L418.086 171.591C429.366 166.064 433.871 157.434 433.871 147.63H417.973ZM440.722 143.958V177.912H443.826V143.958H440.722ZM458.889 168.373H478.459V177.95H481.601V165.875H458.889V168.373ZM462.901 159.553C459.57 159.553 457.11 157.244 457.11 153.989C457.11 150.809 459.57 148.5 462.901 148.5C466.195 148.5 468.693 150.809 468.693 153.989C468.693 157.244 466.195 159.553 462.901 159.553ZM478.459 143.996V152.702H471.494C470.926 148.614 467.444 145.851 462.901 145.851C457.867 145.851 454.157 149.22 454.157 153.989C454.157 158.834 457.867 162.203 462.901 162.203C467.482 162.203 470.964 159.402 471.532 155.238H478.459V163.982H481.601V143.996H478.459ZM511.426 147.44H502.947V143.617H499.843V147.44H491.402V149.939H511.426V147.44ZM496.247 157.471C496.247 155.276 498.291 153.875 501.395 153.875C504.499 153.875 506.581 155.276 506.581 157.471C506.581 159.705 504.499 161.068 501.395 161.068C498.291 161.068 496.247 159.705 496.247 157.471ZM509.533 157.471C509.533 153.875 506.24 151.566 501.395 151.566C496.55 151.566 493.294 153.875 493.294 157.471C493.294 161.105 496.55 163.414 501.395 163.414C506.24 163.414 509.533 161.105 509.533 157.471ZM514.568 174.96H499.351V171.212H514.568V174.96ZM514.568 168.79H499.351V165.194H496.285V177.458H517.634V165.194H514.568V168.79ZM522.669 152.588H517.634V143.958H514.53V163.679H517.634V155.2H522.669V152.588ZM534.173 147.251H531.069V169.13H533.87C539.283 169.13 544.62 168.752 550.526 167.54L550.185 164.891C544.545 166.026 539.283 166.481 534.173 166.481V147.251ZM553.667 143.958V177.874H556.771V143.958H553.667ZM571.153 149.787H583.833V147.213H568.049V169.509H570.736C577.133 169.509 581.6 169.282 586.786 168.298L586.445 165.723C581.524 166.594 577.171 166.859 571.153 166.859V149.787ZM598.331 157.358H592.729V143.958H589.625V177.988H592.729V159.932H598.331V157.358ZM608.927 173.332C608.927 173.938 608.713 174.468 608.284 174.922C607.855 175.351 607.312 175.565 606.656 175.565C606.025 175.565 605.495 175.351 605.066 174.922C604.637 174.493 604.423 173.963 604.423 173.332C604.423 172.676 604.637 172.133 605.066 171.704C605.495 171.25 606.025 171.023 606.656 171.023C607.287 171.023 607.817 171.25 608.246 171.704C608.7 172.159 608.927 172.701 608.927 173.332Z" fill="#828282"/>
</svg>
